<?xml version="1.0" encoding="UTF-8"?>
<svg version="1.1" xmlns="http://www.w3.org/2000/svg" width="1024" height="1024">
<path d="M0 0 C337.92 0 675.84 0 1024 0 C1024 337.92 1024 675.84 1024 1024 C686.08 1024 348.16 1024 0 1024 C0 686.08 0 348.16 0 0 Z " fill="#003165" transform="translate(0,0)"/>
<path d="M0 0 C2.94471952 1.66147019 5.42917739 3.81564092 8 6 C8.99515625 6.8353125 9.9903125 7.670625 11.015625 8.53125 C13.25801672 10.41929595 15.49225253 12.31656302 17.72265625 14.21875 C21.42135885 17.36731214 25.17920136 20.44034227 28.9453125 23.5078125 C32.68153727 26.5560368 36.40374366 29.62103358 40.125 32.6875 C40.84913086 33.28409424 41.57326172 33.88068848 42.31933594 34.49536133 C43.80570748 35.71999939 45.29203523 36.94469061 46.77832031 38.16943359 C50.35162049 41.11367588 53.92583228 44.05681098 57.5 47 C61.8207954 50.55800806 66.14134693 54.11631052 70.4609375 57.67578125 C78.29582676 64.13133714 86.1385668 70.57678249 94 77 C94.84175781 77.68964844 95.68351563 78.37929688 96.55078125 79.08984375 C98.33814562 80.55415856 100.12726565 82.0163325 101.91796875 83.4765625 C104.241281 85.37879281 106.55461477 87.29109312 108.86328125 89.2109375 C120.79316795 99.58600369 120.79316795 99.58600369 134.61328125 106.92578125 C137.46524464 108.20939816 138.49510988 109.27269105 140 112 C140.36328125 114.4375 140.36328125 114.4375 140.3125 117 C140.30863281 117.845625 140.30476563 118.69125 140.30078125 119.5625 C139.97961674 122.16518386 139.39006752 123.78743578 138 126 C132.00661839 130.41617593 128.29875047 129 120 129 C120.495 232.455 120.495 232.455 121 338 C126.28 338.33 131.56 338.66 137 339 C141.79797317 343.79797317 143.1221609 345.13219065 143.25 351.375 C143.21385377 355.81375754 142.20729544 358.79270456 139 362 C137.46914161 362.09581822 135.93386244 362.12188108 134.40000916 362.12025452 C132.90864189 362.12231651 132.90864189 362.12231651 131.387146 362.12442017 C130.28735413 362.12082489 129.18756226 362.11722961 128.05444336 362.11352539 C126.32784233 362.11374443 126.32784233 362.11374443 124.56636047 362.1139679 C120.74083609 362.11326818 116.91535969 362.10547302 113.08984375 362.09765625 C110.44568407 362.09579228 107.80152404 362.09436828 105.15736389 362.09336853 C98.89584583 362.09025549 92.63434514 362.08204248 86.37283474 362.07201904 C79.24598463 362.06085705 72.1191337 362.05534724 64.99227703 362.05032361 C50.3281757 362.03985984 35.66408809 362.02226093 21 362 C20.39175804 351.90854119 19.86596295 341.84641311 19.7890625 331.734375 C19.76106094 329.58723108 19.73239726 327.44009572 19.703125 325.29296875 C19.66158451 321.99495077 19.62458381 318.69710586 19.59863281 315.39892578 C19.57107614 312.15626608 19.52530217 308.91427622 19.4765625 305.671875 C19.4716832 304.19530426 19.4716832 304.19530426 19.46670532 302.68890381 C19.37171312 297.39948398 19.01531363 293.54610933 16 289 C10.27318113 284.74159623 4.67730939 284.79253948 -2.1875 284.75 C-3.00025391 284.729375 -3.81300781 284.70875 -4.65039062 284.6875 C-10.27575384 284.65169817 -16.10007228 284.9998261 -21 288 C-24.48472981 292.40530937 -25.50435755 295.33608986 -25.54589844 300.92333984 C-25.56140495 301.91951828 -25.56140495 301.91951828 -25.57722473 302.93582153 C-25.60650882 305.11111191 -25.60814871 307.28546606 -25.609375 309.4609375 C-25.62436654 310.97695678 -25.64109574 312.49295978 -25.65948486 314.00894165 C-25.70306195 317.98403703 -25.7231358 321.95891212 -25.73822021 325.9342041 C-25.75782633 329.99663262 -25.7997923 334.05882446 -25.83984375 338.12109375 C-25.91504122 346.08066706 -25.96539568 354.04014717 -26 362 C-41.46382469 362.07004311 -56.92763754 362.1229651 -72.39158344 362.15543652 C-79.57157503 362.1709135 -86.75146811 362.19201875 -93.93139648 362.22631836 C-100.18853593 362.25619545 -106.44560406 362.27556896 -112.70281285 362.28226548 C-116.01680872 362.28618068 -119.33055263 362.29696488 -122.64449501 362.31719017 C-126.34165335 362.3388635 -130.0383844 362.3419711 -133.7355957 362.34057617 C-135.38852379 362.35675491 -135.38852379 362.35675491 -137.07484436 362.3732605 C-138.58295685 362.36707451 -138.58295685 362.36707451 -140.12153625 362.36076355 C-140.9963178 362.36352893 -141.87109934 362.36629431 -142.77238941 362.36914349 C-145.48415808 361.91976883 -146.32529109 361.1339453 -148 359 C-150.18290308 354.63419383 -149.45540845 348.64647669 -148.1875 344.0625 C-147 342 -147 342 -144 339 C-138.72 338.67 -133.44 338.34 -128 338 C-127.505 234.545 -127.505 234.545 -127 129 C-130.63 129 -134.26 129 -138 129 C-141.29274199 127.2669779 -143.39737451 125.60262549 -146 123 C-146.5546875 121.046875 -146.5546875 121.046875 -146.875 118.75 C-146.99617188 118.00234375 -147.11734375 117.2546875 -147.2421875 116.484375 C-146.87926137 112.76145534 -145.36854449 110.8530195 -143 108 C-140.0390625 106.3046875 -140.0390625 106.3046875 -136.625 104.875 C-128.77342966 101.31900515 -122.90893119 96.15314471 -116.57373047 90.40429688 C-114.38727125 88.45323987 -112.1116483 86.62857291 -109.8125 84.8125 C-105.42935446 81.34609078 -101.09748533 77.82191994 -96.77734375 74.27734375 C-94.95978656 72.78699798 -93.13957252 71.29988506 -91.31640625 69.81640625 C-86.3116192 65.74139096 -81.35376589 61.61840856 -76.4375 57.4375 C-71.88705686 53.56769574 -67.27167649 49.80040487 -62.58984375 46.08984375 C-59.53918121 43.62814774 -56.54852806 41.10188875 -53.5625 38.5625 C-46.90570251 32.90140228 -40.15243403 27.3650095 -33.36328125 21.86328125 C-29.32429938 18.57902884 -25.30683545 15.27863106 -21.37109375 11.87109375 C-20.74952393 11.33331299 -20.1279541 10.79553223 -19.48754883 10.24145508 C-18.27467554 9.18883559 -17.06471661 8.13284558 -15.8581543 7.07299805 C-6.41210424 -1.13154781 -6.41210424 -1.13154781 0 0 Z " fill="#FDFBF8" transform="translate(515,247)"/>
<path d="M0 0 C59.4464116 0 59.4464116 0 74.82421875 14.3671875 C83.49555432 24.85997057 87.41026739 37.73331045 87.3125 51.1875 C87.30686035 52.01193604 87.3012207 52.83637207 87.29541016 53.68579102 C87.01144685 68.18057144 83.48129703 81.44616185 73.5 92.3125 C53.3720426 111.22242669 25.92509477 107 0 107 C0 71.69 0 36.38 0 0 Z " fill="#FCFBF8" transform="translate(144,669)"/>
<path d="M0 0 C3.57034082 2.6148975 6.28831667 5.90717111 8.94140625 9.421875 C9.99328125 8.060625 9.99328125 8.060625 11.06640625 6.671875 C16.05231723 0.71687146 22.00509338 -2.22732406 29.7109375 -2.9140625 C39.16455772 -3.12504458 46.52467411 -2.60225872 53.75390625 3.984375 C59.845806 12.41724503 60.50647013 21.90980386 60.33203125 31.96484375 C60.32637146 33.21445389 60.32071167 34.46406403 60.31488037 35.75154114 C60.29642839 39.0347988 60.26064896 42.31723345 60.21606445 45.60021973 C60.17475895 48.96580056 60.15679501 52.33150307 60.13671875 55.69726562 C60.09284761 62.27249189 60.02392114 68.84702476 59.94140625 75.421875 C53.67140625 75.421875 47.40140625 75.421875 40.94140625 75.421875 C40.92682373 73.81747559 40.91224121 72.21307617 40.8972168 70.56005859 C40.83918598 64.59987247 40.76195235 58.64006223 40.67895508 52.68017578 C40.64572844 50.1021129 40.61768952 47.52397767 40.5949707 44.94580078 C40.56138418 41.23699146 40.50906381 37.5288438 40.453125 33.8203125 C40.44673508 32.67009613 40.44034515 31.51987976 40.4337616 30.33480835 C40.29311093 22.46292773 40.29311093 22.46292773 36.94140625 15.421875 C32.78790064 12.44648589 27.83134456 12.81251346 22.94140625 13.421875 C18.03120243 15.11032799 15.23462018 17.79460308 12.94140625 22.421875 C12.47705475 25.05923847 12.47705475 25.05923847 12.5090332 27.85473633 C12.48923904 28.91545853 12.46944489 29.97618073 12.4490509 31.06904602 C12.44266098 32.2025499 12.43627106 33.33605377 12.4296875 34.50390625 C12.4027607 36.25787971 12.4027607 36.25787971 12.37528992 38.04728699 C12.32117568 41.77627982 12.28728657 45.50514454 12.25390625 49.234375 C12.22073428 51.76499179 12.18624474 54.29559167 12.15039062 56.82617188 C12.06544805 63.02464719 11.99864142 69.22308442 11.94140625 75.421875 C5.67140625 75.421875 -0.59859375 75.421875 -7.05859375 75.421875 C-7.07317627 73.84776855 -7.08775879 72.27366211 -7.1027832 70.65185547 C-7.16081972 64.80348157 -7.23805328 58.95549051 -7.32104492 53.10742188 C-7.35426889 50.57786275 -7.38230864 48.04822995 -7.4050293 45.51855469 C-7.43862079 41.87923833 -7.49094129 38.24059566 -7.546875 34.6015625 C-7.55326492 33.47321991 -7.55965485 32.34487732 -7.5662384 31.18234253 C-7.6893807 24.58390773 -7.99081563 19.43873564 -12.94140625 14.5703125 C-16.80960745 12.47206314 -20.78676794 12.9352113 -25.05859375 13.421875 C-29.28095363 14.82932829 -31.80890657 16.62273359 -34.22033691 20.40045166 C-36.07286639 24.86775352 -35.66278379 29.83985418 -35.66796875 34.6015625 C-35.684505 35.7694632 -35.70104126 36.93736389 -35.71807861 38.14065552 C-35.76654228 41.85944894 -35.78792707 45.57783343 -35.80859375 49.296875 C-35.83675462 51.82293722 -35.8666822 54.34898041 -35.8984375 56.875 C-35.97230158 63.05725801 -36.02188682 69.23928922 -36.05859375 75.421875 C-42.32859375 75.421875 -48.59859375 75.421875 -55.05859375 75.421875 C-55.05859375 50.011875 -55.05859375 24.601875 -55.05859375 -1.578125 C-49.44859375 -1.578125 -43.83859375 -1.578125 -38.05859375 -1.578125 C-37.39859375 1.061875 -36.73859375 3.701875 -36.05859375 6.421875 C-35.63449219 6.02355469 -35.21039063 5.62523437 -34.7734375 5.21484375 C-25.17741756 -3.45320943 -12.03764412 -6.30434493 0 0 Z " fill="#FBFAF8" transform="translate(513.05859375,700.578125)"/>
<path d="M0 0 C13.87865056 -2.20587823 27.40401656 2.57725596 39.08984375 9.875 C51.02769449 18.59203463 61.29186804 30.98280612 64.59375 45.7109375 C66.76739169 63.30907501 65.22680201 79.73278765 54.87109375 94.609375 C45.84369928 106.14333203 33.5616866 114.34669905 19 117 C5.33108198 118.47994728 -9.53358491 117.30740814 -20.78125 108.625 C-22 107 -22 107 -21.6875 104.8125 C-21.460625 104.214375 -21.23375 103.61625 -21 103 C-20.05640625 102.85304688 -19.1128125 102.70609375 -18.140625 102.5546875 C-2.51254038 99.82447995 9.30994366 93.63164571 19.375 81 C27.49657663 69.41413504 29.19841087 56.90112991 27.3125 43.125 C25.36303299 32.57892499 21.13566602 23.96610991 14 16 C13.443125 15.37351563 12.88625 14.74703125 12.3125 14.1015625 C8.05710771 9.59005863 3.25869941 6.25538535 -2 3 C-1.34 2.01 -0.68 1.02 0 0 Z " fill="#FCFBF8" transform="translate(644,211)"/>
<path d="M0 0 C8.1206544 5.24130879 8.1206544 5.24130879 10 9 C8.75506252 11.28974316 7.47358472 13.44190034 6.0625 15.625 C5.67642578 16.23601563 5.29035156 16.84703125 4.89257812 17.4765625 C3.93553674 18.9889242 2.96867189 20.49506117 2 22 C-1.58542045 20.67301165 -4.65718534 19.05611161 -7.875 17 C-14.60606911 12.92357706 -21.12108359 10.90533065 -29 12 C-33.17871214 13.34445521 -36.16270327 15.00571013 -39 18.375 C-40.20553341 21.53952521 -40.42046396 23.63628832 -40 27 C-37.87372286 31.58523711 -35.49940838 33.19957849 -31 35.375 C-30.39841064 35.66753662 -29.79682129 35.96007324 -29.17700195 36.26147461 C-23.97234198 38.71600824 -18.60747093 40.64385577 -13.1875 42.5625 C-1.94896525 46.56852237 7.95293746 51.72991567 13.4375 62.9375 C15.1086708 72.03609656 13.75595104 80.28821275 9.0625 88.3125 C8.381875 89.199375 7.70125 90.08625 7 91 C6.484375 91.825 5.96875 92.65 5.4375 93.5 C-2.49602844 101.63695224 -13.29400932 104.18096249 -24.29345703 104.38061523 C-39.08570772 104.34764162 -50.37518252 101.38852111 -61.28125 90.78125 C-61.8484375 90.1934375 -62.415625 89.605625 -63 89 C-61.61219205 85.10993227 -59.7847773 82.03441292 -57.375 78.6875 C-56.42753906 77.36298828 -56.42753906 77.36298828 -55.4609375 76.01171875 C-54.97882812 75.34785156 -54.49671875 74.68398438 -54 74 C-53.53851562 74.37511719 -53.07703125 74.75023437 -52.6015625 75.13671875 C-41.30817072 83.99734431 -31.17494668 87.02938769 -17 86 C-12.46201117 84.70343176 -9.66859467 83.00289201 -7 79 C-6.57229528 76.89125815 -6.57229528 76.89125815 -6.5625 74.625 C-6.52253906 73.87476563 -6.48257813 73.12453125 -6.44140625 72.3515625 C-7.31412599 68.67759548 -9.06866234 67.34954545 -12 65 C-15.10140506 63.42306344 -18.30245575 62.20786249 -21.5625 61 C-22.45565918 60.65316162 -23.34881836 60.30632324 -24.26904297 59.94897461 C-28.04054436 58.48470849 -31.82295293 57.06384367 -35.62890625 55.69140625 C-45.4099836 52.00596772 -52.75833242 45.91850685 -58.16015625 36.921875 C-60.84139795 30.78619633 -61.06161052 22.98423707 -59.3515625 16.56640625 C-55.58408827 7.2765232 -49.1268956 0.98433006 -40 -3 C-27.63867741 -8.09207321 -11.60232253 -6.05731644 0 0 Z " fill="#FBFAF8" transform="translate(648,673)"/>
<path d="M0 0 C1.21913086 -0.0309375 1.21913086 -0.0309375 2.46289062 -0.0625 C10.95668155 -0.11655754 18.1061959 1.76686613 24.37890625 7.6484375 C30.43965282 14.41929879 31.11073626 23.27197644 31.2265625 31.90234375 C31.24592865 32.80247696 31.2652948 33.70261017 31.2852478 34.63002014 C31.34464471 37.48241945 31.39126831 40.33486001 31.4375 43.1875 C31.47571655 45.13087619 31.51477038 47.07423612 31.5546875 49.01757812 C31.65031312 53.76158533 31.73449019 58.50567175 31.8125 63.25 C33.7925 63.91 35.7725 64.57 37.8125 65.25 C37.83936553 67.22909398 37.85883375 69.20828971 37.875 71.1875 C37.88660156 72.28964844 37.89820313 73.39179687 37.91015625 74.52734375 C37.8125 77.25 37.8125 77.25 36.8125 78.25 C34.23340934 78.43145851 31.70663347 78.52820018 29.125 78.5625 C28.06249023 78.60600586 28.06249023 78.60600586 26.97851562 78.65039062 C21.83616593 78.71211781 18.81318938 77.7590532 14.8125 74.25 C13.9375 72 13.9375 72 13.8125 70.25 C13.26722656 70.64832031 12.72195313 71.04664063 12.16015625 71.45703125 C2.71484687 78.09296655 -5.54367239 80.53255032 -17.1875 79.25 C-23.60925836 77.57845407 -27.50914028 74.71180686 -31.1875 69.25 C-34.33282557 62.78089068 -34.59933803 54.60202499 -32.3828125 47.76953125 C-27.99049602 39.93909119 -20.48443834 36.39402799 -12.1875 33.875 C-3.83440066 31.82276646 4.26166943 31.87321922 12.8125 32.25 C12.3883071 30.30954312 11.94764005 28.37268239 11.5 26.4375 C11.25636719 25.35855469 11.01273437 24.27960937 10.76171875 23.16796875 C9.81655632 20.26246943 9.22731308 19.04471293 6.8125 17.25 C0.740266 15.225922 -6.23345028 14.98841504 -12.16015625 17.51953125 C-14.60007227 18.99641709 -16.90155952 20.54657717 -19.1875 22.25 C-20.1775 22.91 -21.1675 23.57 -22.1875 24.25 C-24.8275 21.28 -27.4675 18.31 -30.1875 15.25 C-26.63279223 8.14058445 -20.46458275 4.17583739 -13.1875 1.25 C-8.78963574 -0.0188597 -4.54790978 0.02818224 0 0 Z " fill="#FAF9F7" transform="translate(408.1875,697.75)"/>
<path d="M0 0 C8.72780348 6.4090736 13.61337829 12.97007427 15.69140625 23.5625 C16.44287995 29.49819097 16.45142364 35.19430546 15 41 C-1.83 41 -18.66 41 -36 41 C-32.69698964 51.84340149 -32.69698964 51.84340149 -24.7265625 58.09765625 C-16.8009204 60.7206123 -8.57182971 59.46272179 -1.12109375 56.0703125 C-0.42113281 55.71710937 0.27882813 55.36390625 1 55 C2.32 54.34 3.64 53.68 5 53 C7.97 56.3 10.94 59.6 14 63 C9.39590789 70.16192106 1.67117248 73.46675141 -6.3984375 75.6484375 C-18.97676393 77.34821134 -30.57297317 76.5596619 -41.3125 69.3125 C-48.2065966 63.70398289 -53.22957777 55.27944449 -54.31762695 46.41113281 C-55.12534998 31.62419046 -54.55178518 19.32874175 -44.8125 7.5 C-34.38429184 -3.22466224 -13.5273787 -8.1267142 0 0 Z " fill="#FBFBF8" transform="translate(349,701)"/>
<path d="M0 0 C1.18118408 -0.01546875 1.18118408 -0.01546875 2.38623047 -0.03125 C10.29569712 0.08756527 17.93505537 1.89223224 23.76127625 7.52023315 C29.10307865 13.86683406 29.95969214 21.76727147 29.9140625 29.75 C29.92585541 30.68553711 29.93764832 31.62107422 29.94979858 32.58496094 C29.98475495 35.53598177 29.99420479 38.4862898 30 41.4375 C30.01634217 44.41706217 30.03829586 47.39631061 30.07162476 50.37573242 C30.09127044 52.22086449 30.10058794 54.06614143 30.09854126 55.91137695 C30.10550018 56.73984131 30.11245911 57.56830566 30.11962891 58.421875 C30.12088776 59.15116211 30.12214661 59.88044922 30.1234436 60.63183594 C30.2251909 62.68954067 30.2251909 62.68954067 32.375 64.4375 C34.355 64.9325 34.355 64.9325 36.375 65.4375 C36.375 69.7275 36.375 74.0175 36.375 78.4375 C33.66496573 78.5733035 30.96181059 78.67194624 28.25 78.75 C27.48945312 78.79189453 26.72890625 78.83378906 25.9453125 78.87695312 C21.79206582 78.96646275 19.2113295 78.74611899 15.9453125 76.04296875 C15.09710937 75.18316406 14.24890625 74.32335937 13.375 73.4375 C12.385 72.4475 12.385 72.4475 11.375 71.4375 C10.80652344 71.84742188 10.23804688 72.25734375 9.65234375 72.6796875 C0.50021311 79.06631622 -7.49474069 80.45402079 -18.625 79.4375 C-24.89054626 77.78450438 -29.08609245 73.74586133 -32.625 68.4375 C-35.27270842 62.90138239 -35.59765376 56.96701006 -33.97265625 51.0703125 C-31.38538053 44.47442503 -27.5832711 40.42318898 -21.265625 37.25390625 C-18.74652631 36.18602746 -16.22820315 35.27828611 -13.625 34.4375 C-12.93921875 34.210625 -12.2534375 33.98375 -11.546875 33.75 C-4.10177349 31.70401791 3.72579491 32.2685605 11.375 32.4375 C11.1063393 26.39263425 10.43923007 22.21894714 6.375 17.4375 C-0.03207899 15.301807 -8.03704097 15.22831688 -14.1875 18.1875 C-17.09273532 19.90005977 -19.32724632 21.96299603 -21.625 24.4375 C-23.625 24.4375 -23.625 24.4375 -25.38671875 22.828125 C-26.02222656 22.12171875 -26.65773438 21.4153125 -27.3125 20.6875 C-27.95574219 19.99140625 -28.59898437 19.2953125 -29.26171875 18.578125 C-30.625 16.4375 -30.625 16.4375 -30.57421875 14.421875 C-27.80339958 8.62938061 -21.48792896 4.44784392 -15.75 1.9375 C-10.52975021 0.27852231 -5.43420397 0.0590789 0 0 Z " fill="#FAFAF8" transform="translate(760.625,697.5625)"/>
<path d="M0 0 C3.22411505 1.4772309 5.85061185 3.6402269 8.5859375 5.859375 C9.19920898 6.34897705 9.81248047 6.8385791 10.44433594 7.34301758 C15.21001433 11.1691311 19.88593322 15.09898486 24.53295898 19.06787109 C27.69391118 21.76623316 30.89041147 24.40422858 34.1484375 26.984375 C39.76083455 31.43590165 45.21644077 36.06364663 50.65917969 40.71972656 C52.00166201 41.85973614 53.35933366 42.98180011 54.71875 44.1015625 C55.43804688 44.70226562 56.15734375 45.30296875 56.8984375 45.921875 C57.51203125 46.42589844 58.125625 46.92992187 58.7578125 47.44921875 C60.42317298 49.28766445 60.9292955 50.51902755 61.1484375 52.984375 C58.65050076 55.48231174 57.8894053 55.23533929 54.44165039 55.23834229 C53.4489212 55.24398193 52.45619202 55.24962158 51.43338013 55.25543213 C50.34032562 55.25138367 49.24727112 55.24733521 48.12109375 55.24316406 C46.39909256 55.24842102 46.39909256 55.24842102 44.64230347 55.25378418 C40.83178738 55.26261666 37.02145561 55.25674691 33.2109375 55.25 C30.57299768 55.25134621 27.93505811 55.25328637 25.29711914 55.25579834 C19.76218656 55.25943956 14.2273073 55.25463482 8.69238281 55.24511719 C2.28828565 55.2342323 -4.11568418 55.23775777 -10.51977825 55.24877 C-16.67393881 55.25892992 -22.8280428 55.25786681 -28.98220825 55.25200653 C-31.60417702 55.25066847 -34.22614902 55.25232318 -36.84811401 55.25696564 C-40.50690428 55.26202155 -44.16544701 55.25433363 -47.82421875 55.24316406 C-48.91727325 55.24721252 -50.01032776 55.25126099 -51.13650513 55.25543213 C-52.62559891 55.24697266 -52.62559891 55.24697266 -54.14477539 55.23834229 C-55.01050674 55.23758823 -55.8762381 55.23683418 -56.76820374 55.23605728 C-58.8515625 54.984375 -58.8515625 54.984375 -60.8515625 52.984375 C-60.875 50.71875 -60.875 50.71875 -59.8515625 47.984375 C-57.76908881 45.88430294 -55.7671186 44.07489891 -53.4765625 42.234375 C-52.84242432 41.70851807 -52.20828613 41.18266113 -51.55493164 40.64086914 C-49.66337099 39.07657964 -47.75919888 37.52899293 -45.8515625 35.984375 C-44.88863281 35.19417969 -43.92570312 34.40398437 -42.93359375 33.58984375 C-41.16873 32.14302044 -39.40048423 30.70031291 -37.62890625 29.26171875 C-34.50759484 26.70233119 -31.42719806 24.09828195 -28.3515625 21.484375 C-23.41741082 17.29533043 -18.4587478 13.14077012 -13.42578125 9.0703125 C-11.70564213 7.67645167 -9.99980247 6.26476208 -8.30859375 4.8359375 C-7.51839844 4.18367188 -6.72820312 3.53140625 -5.9140625 2.859375 C-5.22441406 2.27929688 -4.53476562 1.69921875 -3.82421875 1.1015625 C-1.8515625 -0.015625 -1.8515625 -0.015625 0 0 Z " fill="#002F63" transform="translate(511.8515625,296.015625)"/>
<path d="M0 0 C6.6 0 13.2 0 20 0 C21.9027937 5.56419104 23.80522335 11.12850408 25.70678711 16.69311523 C26.35144065 18.57925242 26.99629157 20.46532215 27.64135742 22.35131836 C31.47245484 33.55288758 35.27974257 44.76106648 39 56 C41.8297875 49.25603081 44.17547953 42.4939005 46.19921875 35.46875 C46.47973587 34.51101685 46.76025299 33.55328369 47.04927063 32.56652832 C47.93332198 29.54568407 48.81078712 26.52298134 49.6875 23.5 C50.57599677 20.44878143 51.46589918 17.39798478 52.35786438 14.34777832 C52.90991807 12.45870725 53.45978701 10.56899606 54.00724792 8.67858887 C54.2545314 7.83010376 54.50181488 6.98161865 54.7565918 6.10742188 C54.97324997 5.36036987 55.18990814 4.61331787 55.41313171 3.84362793 C56 2 56 2 57 0 C62.94 0 68.88 0 75 0 C73.48397971 7.82465464 70.98997864 15.13642763 68.30859375 22.6328125 C67.83941138 23.95477887 67.37059293 25.27687445 66.90211487 26.59909058 C65.91945173 29.36885867 64.93316132 32.13729848 63.9440918 34.90478516 C62.70329179 38.37717998 61.47037305 41.85230689 60.23985863 45.3283577 C57.20368209 53.90167219 54.11842523 62.45628025 51 71 C50.58228333 72.15157593 50.16456665 73.30315186 49.73419189 74.48962402 C48.58237227 77.6436662 47.40742266 80.78789601 46.22265625 83.9296875 C45.89615585 84.82857697 45.56965546 85.72746643 45.23326111 86.65359497 C41.85743625 95.43420855 36.47255168 103.47877287 28 108 C19.7765784 111.19799729 12.2825669 110.40947401 4 108 C4 103.05 4 98.1 4 93 C5.98 93.33 7.96 93.66 10 94 C14.67826276 94.42913388 18.6108262 94.6945869 22.875 92.5625 C25.77483734 89.06563733 27.93585814 85.44313779 29 81 C28.53264159 76.29483763 27.53452992 72.26087221 25.8046875 67.87109375 C25.34296143 66.6888623 24.88123535 65.50663086 24.40551758 64.28857422 C23.89541927 63.00485332 23.38524461 61.72116275 22.875 60.4375 C22.34786637 59.09418138 21.82143401 57.7505874 21.2956543 56.40673828 C18.53478551 49.3638092 15.7369421 42.33549554 12.94366455 35.30537415 C11.90891426 32.70013661 10.87550484 30.09437028 9.84228516 27.48852539 C8.50540066 24.11683877 7.16182234 20.74792864 5.81396484 17.38061523 C5.19482612 15.82411997 4.57584077 14.26756368 3.95703125 12.7109375 C3.6721434 12.00388168 3.38725555 11.29682587 3.09373474 10.56834412 C1.67892224 6.99536794 0.76091524 3.80457621 0 0 Z " fill="#FBFAF8" transform="translate(799,699)"/>
<path d="M0 0 C28.55882353 0 28.55882353 0 39.5625 9.125 C46.48490958 17.28989335 48.17995791 25.40225071 48.1875 35.75 C48.19974609 36.61882813 48.21199219 37.48765625 48.22460938 38.3828125 C48.24848304 48.98272095 45.57355562 59.21606783 38 67 C26.48970032 76.15902706 14.72149162 75 0 75 C0 50.25 0 25.5 0 0 Z " fill="#003165" transform="translate(163,685)"/>
<path d="M0 0 C0 6.93 0 13.86 0 21 C6.93 21 13.86 21 21 21 C21 25.62 21 30.24 21 35 C14.07 35 7.14 35 0 35 C0.05102269 41.19415427 0.11391531 47.38578283 0.20751953 53.57910156 C0.23574279 55.6857896 0.25695056 57.7925838 0.27099609 59.89941406 C0.29240661 62.9282878 0.3390476 65.95588331 0.390625 68.984375 C0.39185364 69.92617615 0.39308228 70.86797729 0.39434814 71.83831787 C0.46628621 77.07690067 0.46628621 77.07690067 2.88793945 81.59936523 C5.45860943 83.30413158 6.87602704 83.44929925 9.9375 83.3125 C10.81019531 83.27769531 11.68289063 83.24289062 12.58203125 83.20703125 C15.11431612 82.99021203 17.54167781 82.65555259 20 82 C20.70180531 83.4096347 21.38593958 84.82807641 22.0625 86.25 C22.44535156 87.03890625 22.82820312 87.8278125 23.22265625 88.640625 C24.09976443 91.30280259 24.12334514 92.45044705 23 95 C14.85361404 99.88783158 6.21054983 99.65789642 -3 99 C-8.34888344 97.56948466 -12.09771354 94.72965201 -15 90 C-17.98020746 83.46472273 -18.40484658 78.06741048 -18.29296875 70.9375 C-18.28872391 69.90560547 -18.28447906 68.87371094 -18.28010559 67.81054688 C-18.26341801 64.54009033 -18.22578395 61.27026783 -18.1875 58 C-18.17244036 55.77214437 -18.1587542 53.544279 -18.14648438 51.31640625 C-18.11354693 45.87736279 -18.06183324 40.43878861 -18 35 C-22.29 35 -26.58 35 -31 35 C-31 30.38 -31 25.76 -31 21 C-26.71 21 -22.42 21 -18 21 C-18 15.06 -18 9.12 -18 3 C-15.586875 2.505 -13.17375 2.01 -10.6875 1.5 C-9.93170654 1.34337891 -9.17591309 1.18675781 -8.3972168 1.02539062 C-5.54118734 0.44707048 -2.92148456 0 0 0 Z " fill="#FCFBF9" transform="translate(696,678)"/>
<path d="M0 0 C1.299375 -0.03867187 1.299375 -0.03867187 2.625 -0.078125 C5 0.25 5 0.25 6.86328125 1.28515625 C8.68735695 4.43811184 7.78602764 7.50956898 7.1875 10.9375 C7.02411133 11.9903418 7.02411133 11.9903418 6.85742188 13.06445312 C6.58659667 14.7953794 6.29525563 16.5230732 6 18.25 C5.13117188 18.28738281 4.26234375 18.32476563 3.3671875 18.36328125 C-6.98807751 18.86094647 -6.98807751 18.86094647 -15.25 24.625 C-19.23913906 30.60870859 -19.33140843 35.78566977 -19.4140625 42.80078125 C-19.43342865 43.81472458 -19.4527948 44.82866791 -19.4727478 45.87333679 C-19.53239426 49.10297303 -19.57886951 52.3326452 -19.625 55.5625 C-19.66319349 57.75587468 -19.70224602 59.94923458 -19.7421875 62.14257812 C-19.83808368 67.51159833 -19.92217014 72.88068874 -20 78.25 C-26.27 78.25 -32.54 78.25 -39 78.25 C-39 52.84 -39 27.43 -39 1.25 C-33.39 1.25 -27.78 1.25 -22 1.25 C-21.34 5.54 -20.68 9.83 -20 14.25 C-18.700625 12.4246875 -18.700625 12.4246875 -17.375 10.5625 C-12.62348098 4.22714131 -8.24333355 0.14720238 0 0 Z " fill="#FCFBF9" transform="translate(282,697.75)"/>
<path d="M0 0 C1.07636719 -0.01998047 2.15273438 -0.03996094 3.26171875 -0.06054688 C9.49027729 -0.05670683 13.43761576 0.17118587 18.125 4.4375 C20.31562416 8.81874831 19.39332802 14.69081344 19.42016602 19.55834961 C19.43735449 21.73160239 19.48123807 23.90332346 19.52539062 26.07617188 C19.53552026 27.4635305 19.54403552 28.85090204 19.55078125 30.23828125 C19.56536377 31.49809814 19.57994629 32.75791504 19.5949707 34.0559082 C19.04378496 38.02186861 17.91089714 39.62192447 15.125 42.4375 C10.65401788 45.11362131 5.74815825 44.76947905 0.6875 44.75 C-0.14587891 44.76611328 -0.97925781 44.78222656 -1.83789062 44.79882812 C-7.77099228 44.80351832 -11.98747841 43.82717304 -16.6875 39.9375 C-20.43365203 35.20551849 -19.10137127 27.74520897 -19.125 22.0625 C-19.145625 20.83015625 -19.16625 19.5978125 -19.1875 18.328125 C-19.19265625 17.13960937 -19.1978125 15.95109375 -19.203125 14.7265625 C-19.2124707 13.64068848 -19.22181641 12.55481445 -19.23144531 11.43603516 C-18.71850444 7.12100787 -17.12069818 4.64090697 -14.02685547 1.65209961 C-9.76458993 -0.75370605 -4.77366699 -0.03121899 0 0 Z " fill="#023064" transform="translate(442.875,531.5625)"/>
<path d="M0 0 C1.47823242 -0.0309375 1.47823242 -0.0309375 2.98632812 -0.0625 C8.41601993 -0.09167229 12.60654208 -0.02527426 17.1875 3.25 C20.42510486 8.10431401 19.52163791 14.0616781 19.50317383 19.66723633 C19.50001524 21.6777984 19.52348616 23.6868854 19.54882812 25.69726562 C19.54947266 26.97150391 19.55011719 28.24574219 19.55078125 29.55859375 C19.55376221 30.72189209 19.55674316 31.88519043 19.55981445 33.08374023 C19.14362694 36.62310799 18.37531303 38.45485626 16.1875 41.25 C11.55962834 44.47850598 5.72526579 43.65853752 0.3125 43.6875 C-0.76386719 43.72037109 -1.84023438 43.75324219 -2.94921875 43.78710938 C-11.81579318 43.84724027 -11.81579318 43.84724027 -15.5078125 40.91015625 C-20.29363099 35.38618609 -19.11061368 28.39571215 -19.1875 21.4375 C-19.22488281 20.16583984 -19.26226563 18.89417969 -19.30078125 17.58398438 C-19.39965627 7.09773962 -19.39965627 7.09773962 -16.4765625 3.42578125 C-11.43833399 -0.68901828 -6.21204983 0.03212437 0 0 Z " fill="#012F63" transform="translate(579.8125,531.75)"/>
<path d="M0 0 C1.49080078 -0.0309375 1.49080078 -0.0309375 3.01171875 -0.0625 C12.26319801 -0.11203938 12.26319801 -0.11203938 16.125 3.25 C20.64527027 8.02416363 19.64647792 13.87744555 19.62597656 20.09448242 C19.62500428 22.17832704 19.66663787 24.25848381 19.7109375 26.34179688 C19.71480469 28.32083008 19.71480469 28.32083008 19.71875 30.33984375 C19.72583984 31.54503662 19.73292969 32.75022949 19.74023438 33.99194336 C18.95213553 38.16542712 17.39200568 39.62369579 14.125 42.25 C9.56219699 43.77093434 5.02955432 43.47539483 0.25 43.5 C-1.24080078 43.5309375 -1.24080078 43.5309375 -2.76171875 43.5625 C-12.14672881 43.6127544 -12.14672881 43.6127544 -15.875 40.25 C-20.1315934 34.34718506 -19.3892938 28.33432976 -19.375 21.3125 C-19.40335938 20.04986328 -19.43171875 18.78722656 -19.4609375 17.48632812 C-19.48276352 7.14625208 -19.48276352 7.14625208 -16.53125 3.43359375 C-11.49391339 -0.70739326 -6.22468987 0.03204474 0 0 Z " fill="#012F64" transform="translate(579.875,461.75)"/>
<path d="M0 0 C1.41925781 -0.01836914 1.41925781 -0.01836914 2.8671875 -0.03710938 C12.02666421 -0.05640603 12.02666421 -0.05640603 15.625 2.1875 C19.35936662 6.04315746 20.13547515 8.51648555 20.15625 13.84375 C20.16398438 15.74833984 20.16398438 15.74833984 20.171875 17.69140625 C20.15640625 19.01011719 20.1409375 20.32882812 20.125 21.6875 C20.14046875 23.00621094 20.1559375 24.32492187 20.171875 25.68359375 C20.16671875 26.95332031 20.1615625 28.22304688 20.15625 29.53125 C20.15173828 30.68818359 20.14722656 31.84511719 20.14257812 33.03710938 C19.51456183 36.8597142 18.34931427 38.47278684 15.625 41.1875 C11.09489619 44.21499654 5.94038838 43.51704377 0.6875 43.5 C-0.30185547 43.51611328 -1.29121094 43.53222656 -2.31054688 43.54882812 C-11.49059064 43.55500166 -11.49059064 43.55500166 -15.375 40.1875 C-19.7937829 35.47796322 -18.89696227 29.95002504 -18.87597656 23.82519531 C-18.87500654 21.82597151 -18.91782701 19.82688417 -18.9609375 17.828125 C-18.98280481 7.04753984 -18.98280481 7.04753984 -16.03125 3.3359375 C-11.06619822 -0.6799132 -6.09335141 0.00411713 0 0 Z " fill="#013064" transform="translate(579.375,391.8125)"/>
<path d="M0 0 C0.97646484 -0.01160156 1.95292969 -0.02320313 2.95898438 -0.03515625 C8.37154505 -0.01313905 12.44953905 0.2207121 17.0625 3.375 C20.29788064 8.22807096 19.43439098 13.8918919 19.43310547 19.57128906 C19.43747142 21.73583078 19.47377661 23.89832001 19.51171875 26.0625 C19.51758888 27.44530556 19.52155696 28.82812076 19.5234375 30.2109375 C19.53165527 31.46438965 19.53987305 32.7178418 19.54833984 34.00927734 C18.97693047 37.96779475 17.89526331 39.59990434 15.0625 42.375 C10.35921926 43.94276025 5.61360228 43.60079311 0.6875 43.625 C-0.3540625 43.645625 -1.395625 43.66625 -2.46875 43.6875 C-12.25685232 43.73756702 -12.25685232 43.73756702 -15.9375 40.375 C-18.2037599 36.88674706 -18.19520755 33.8824883 -18.203125 29.78125 C-18.20570313 28.50378906 -18.20828125 27.22632813 -18.2109375 25.91015625 C-18.20674805 25.24773926 -18.20255859 24.58532227 -18.19824219 23.90283203 C-18.18753459 21.88153057 -18.19815396 19.86111775 -18.2109375 17.83984375 C-18.20835937 16.56238281 -18.20578125 15.28492188 -18.203125 13.96875 C-18.20086914 12.80021484 -18.19861328 11.63167969 -18.19628906 10.42773438 C-17.85492654 6.40094473 -17.00262922 4.32225778 -13.99609375 1.6484375 C-9.36960167 -0.27779036 -4.95970535 -0.05869474 0 0 Z " fill="#002F63" transform="translate(442.9375,461.625)"/>
<path d="M0 0 C1.04607422 -0.020625 2.09214844 -0.04125 3.16992188 -0.0625 C4.18248047 -0.06765625 5.19503906 -0.0728125 6.23828125 -0.078125 C7.62527222 -0.09214355 7.62527222 -0.09214355 9.0402832 -0.10644531 C12.27658167 0.32931931 14.0910798 1.28430152 16.6875 3.25 C19.11870626 6.5807709 18.94534035 9.81129871 18.953125 13.84375 C18.95699219 15.75994141 18.95699219 15.75994141 18.9609375 17.71484375 C18.95465332 18.70846924 18.95465332 18.70846924 18.94824219 19.72216797 C18.93753459 21.74346943 18.94815396 23.76388225 18.9609375 25.78515625 C18.95835937 27.06261719 18.95578125 28.34007812 18.953125 29.65625 C18.95086914 30.82478516 18.94861328 31.99332031 18.94628906 33.19726562 C18.69501058 36.16140351 18.32718624 37.80210212 16.6875 40.25 C11.37237345 44.00636347 5.94286152 43.73312929 -0.3125 43.6875 C-1.77042969 43.7174707 -1.77042969 43.7174707 -3.2578125 43.74804688 C-9.24256943 43.74397007 -12.77269972 43.25965913 -17.3125 39.25 C-19.50661207 34.86177587 -18.62201422 29.00300122 -18.66259766 24.12915039 C-18.67914004 22.67325842 -18.70640836 21.2174471 -18.74462891 19.76196289 C-18.79958123 17.65728877 -18.82129616 15.55451493 -18.8359375 13.44921875 C-18.85575684 12.18940186 -18.87557617 10.92958496 -18.89599609 9.6315918 C-18.16018455 5.3672714 -16.61663546 3.94266191 -13.3125 1.25 C-9.34565769 -0.73342115 -4.36156262 0.02126295 0 0 Z " fill="#023064" transform="translate(443.3125,391.75)"/>
<path d="M0 0 C0.99837891 -0.020625 1.99675781 -0.04125 3.02539062 -0.0625 C12.46646782 -0.11281887 12.46646782 -0.11281887 16.1875 3.25 C20.44376217 9.15325908 19.70179442 15.16536744 19.6875 22.1875 C19.71585938 23.45013672 19.74421875 24.71277344 19.7734375 26.01367188 C19.79526352 36.35374792 19.79526352 36.35374792 16.84375 40.06640625 C11.83112933 44.1870753 6.57417526 43.50239164 0.375 43.5625 C-1.10323242 43.60600586 -1.10323242 43.60600586 -2.61132812 43.65039062 C-8.66901779 43.70327845 -12.22501935 43.33702822 -16.8125 39.25 C-19.00661207 34.86177587 -18.12201422 29.00300122 -18.16259766 24.12915039 C-18.17914004 22.67325842 -18.20640836 21.2174471 -18.24462891 19.76196289 C-18.29958123 17.65728877 -18.32129616 15.55451493 -18.3359375 13.44921875 C-18.35575684 12.18940186 -18.37557617 10.92958496 -18.39599609 9.6315918 C-17.66018455 5.3672714 -16.11663546 3.94266191 -12.8125 1.25 C-8.96252679 -0.6749866 -4.2349112 0.02162048 0 0 Z " fill="#012F63" transform="translate(510.8125,461.75)"/>
<path d="M0 0 C0.92425781 -0.01998047 1.84851563 -0.03996094 2.80078125 -0.06054688 C8.53020881 -0.05644857 12.01817961 0.51590716 16.5 4.4375 C19.85701071 9.47301607 18.86905905 15.33578192 18.875 21.25 C18.89949219 22.52166016 18.92398438 23.79332031 18.94921875 25.10351562 C18.98208945 35.56187778 18.98208945 35.56187778 16.7265625 39.19921875 C12.414251 43.53422662 8.82064507 43.71395501 2.92773438 43.75976562 C1.98220703 43.75654297 1.03667969 43.75332031 0.0625 43.75 C-0.87916016 43.76611328 -1.82082031 43.78222656 -2.79101562 43.79882812 C-11.55476486 43.80501285 -11.55476486 43.80501285 -15.5 40.4375 C-18.7361586 37.01564402 -18.87510743 34.47961139 -18.86328125 29.84375 C-18.86263672 28.56628906 -18.86199219 27.28882813 -18.86132812 25.97265625 C-18.85302979 25.31023926 -18.84473145 24.64782227 -18.83618164 23.96533203 C-18.8125751 21.9439304 -18.81562726 19.92384841 -18.82226562 17.90234375 C-18.76072183 6.81327148 -18.76072183 6.81327148 -16.5 3.4375 C-11.27637519 -0.20746605 -6.12965418 -0.04701966 0 0 Z " fill="#012F63" transform="translate(511.5,391.5625)"/>
<path d="M0 0 C1.22058699 12.37539587 1.22058699 12.37539587 -1.67578125 16.23046875 C-6.56285561 19.84886933 -10.8654751 21.16989373 -16.9375 21.3125 C-17.97777344 21.34988281 -19.01804687 21.38726563 -20.08984375 21.42578125 C-23.68460064 20.89983695 -24.76599387 19.79380349 -27 17 C-28.45147903 14.09704195 -28.37239025 12.22738221 -28 9 C-25.44790539 4.66143916 -23.25157086 2.77334624 -18.5 1.125 C-12.38515797 -0.45451358 -6.26911055 -0.26530719 0 0 Z " fill="#042E61" transform="translate(421,741)"/>
<path d="M0 0 C1.49617859 13.06662637 1.49617859 13.06662637 -1.8046875 17.33203125 C-7.98398501 21.38904607 -14.77746027 22.39345023 -22 21 C-25.25 19 -25.25 19 -27 16 C-27.67686453 13.15487451 -27.69774752 10.84288866 -27 8 C-24.05944229 3.73144848 -20.5249253 1.94796819 -15.69140625 0.4921875 C-10.49563161 -0.45798319 -5.25780572 -0.21941384 0 0 Z " fill="#032D61" transform="translate(772,741)"/>
<path d="M0 0 C3.84463347 2.29199303 5.86860651 4.74133161 7.25 8.9375 C7.745 12.8975 7.745 12.8975 8.25 16.9375 C-2.64 16.9375 -13.53 16.9375 -24.75 16.9375 C-23.4486755 6.52690397 -23.4486755 6.52690397 -18.75 1.9375 C-12.33013046 -1.81751803 -6.97104851 -1.97513041 0 0 Z " fill="#023063" transform="translate(338.75,713.0625)"/>
<path d="M0 0 C20 0 20 0 27 2 C18.91547917 4.02113021 10.32390115 2.39637625 2 2 C2 25.43 2 48.86 2 73 C8.6 73 15.2 73 22 73 C19 75 19 75 0 75 C0 50.25 0 25.5 0 0 Z " fill="#031C53" transform="translate(163,685)"/>
<path d="M0 0 C0.33 0.66 0.66 1.32 1 2 C0.34 3.98 -0.32 5.96 -1 8 C8.57 8.33 18.14 8.66 28 9 C28.33 8.01 28.66 7.02 29 6 C29.495 8.475 29.495 8.475 30 11 C19.11 11 8.22 11 -3 11 C-2 3 -2 3 0 0 Z " fill="#142958" transform="translate(317,719)"/>
<path d="M0 0 C11.32285353 -0.07609871 22.62044431 0.16047694 33.9375 0.5 C35.60350989 0.54837484 37.26952551 0.59655297 38.93554688 0.64453125 C42.95710057 0.76076275 46.97856835 0.87962278 51 1 C51 1.33 51 1.66 51 2 C34.83 2 18.66 2 2 2 C2.99 5.3 3.98 8.6 5 12 C1.17229561 8.17229561 0.96598352 5.12714331 0 0 Z " fill="#001650" transform="translate(313,742)"/>
<path d="M0 0 C4.95 0 9.9 0 15 0 C15 0.33 15 0.66 15 1 C9.06 1.495 9.06 1.495 3 2 C3.66 5.3 4.32 8.6 5 12 C1.04059368 8.04059368 1.02176476 5.42321298 0 0 Z " fill="#071F52" transform="translate(313,742)"/>
<path d="M0 0 C0.33 0.66 0.66 1.32 1 2 C0.0409375 2.1546875 0.0409375 2.1546875 -0.9375 2.3125 C-1.618125 2.539375 -2.29875 2.76625 -3 3 C-3.33 3.99 -3.66 4.98 -4 6 C-8.455 6.495 -8.455 6.495 -13 7 C-10.63456284 4.63456284 -8.42932795 3.72458677 -5.375 2.375 C-4.37210938 1.92898438 -3.36921875 1.48296875 -2.3359375 1.0234375 C-1.56507813 0.68570313 -0.79421875 0.34796875 0 0 Z " fill="#0A1C4F" transform="translate(209,767)"/>
<path d="M0 0 C3.55420724 0.29618394 4.80337043 0.80337043 7.375 3.375 C8.179375 4.674375 8.179375 4.674375 9 6 C8.67 6.99 8.34 7.98 8 9 C7.79375 8.4225 7.5875 7.845 7.375 7.25 C5.50906354 4.19664942 2.99167574 2.88605645 0 1 C0 0.67 0 0.34 0 0 Z " fill="#122657" transform="translate(525,533)"/>
<path d="M0 0 C0.66 1.65 1.32 3.3 2 5 C1.236875 4.835 0.47375 4.67 -0.3125 4.5 C-3.03596236 3.90854604 -3.03596236 3.90854604 -6 4 C-2.25 0 -2.25 0 0 0 Z " fill="#031646" transform="translate(422,768)"/>
<path d="M0 0 C0.66 0.99 1.32 1.98 2 3 C0.68 5.31 -0.64 7.62 -2 10 C-3.39195915 5.82412255 -1.82323219 3.86525224 0 0 Z " fill="#061A4D" transform="translate(868,718)"/>
<path d="M0 0 C0.66 0.33 1.32 0.66 2 1 C1.71125 1.556875 1.4225 2.11375 1.125 2.6875 C-0.0413253 5.08494645 -1.0339881 7.51596939 -2 10 C-3.39195915 5.82412255 -1.82323219 3.86525224 0 0 Z " fill="#071B4D" transform="translate(848,774)"/>
</svg>
